<svg xmlns="http://www.w3.org/2000/svg" viewBox="0 0 448 512">
<path d="M439.4 362.3c-19.3-20.8-55.5-52-55.5-154.3 0-77.7-54.5-139.9-127.9-155.2V32c0-17.7-14.3-32-32-32s-32 14.3-32 32v20.8C118.6 68.1 64.1 130.3 64.1 208c0 102.3-36.2 133.5-55.5 154.3-6 6.4-8.6 14.1-8.6 21.7.1 16.4 13 32 32.1 32h383.8c19.1 0 32-15.6 32.1-32 .1-7.6-2.6-15.3-8.6-21.7zM201.7 116.6h44.6c6.5 0 11.7 5.5 11.4 12l-6.5 123.8c-.3 6.1-5.3 10.9-11.4 10.9h-31.6c-6.1 0-11.1-4.8-11.4-10.9l-6.5-123.8c-.3-6.6 4.9-12 11.4-12zM224 361.3c-18.6 0-33.7-15.1-33.7-33.7s15.1-33.7 33.7-33.7 33.7 15.1 33.7 33.7-15.1 33.7-33.7 33.7zM224 512c35.3 0 64-28.7 64-64H160c0 35.3 28.7 64 64 64z"/>
</svg>
