<svg xmlns="http://www.w3.org/2000/svg" viewBox="0 0 16 16">
<path d="M8.7955 5.57376C8.16545 5.57379 7.7574 6.01638 7.7574 6.33616V7.96517C7.7574 8.58191 9.1145 8.58191 9.1145 7.96517V7.1343H11.0822L11.1102 10.8732H10.1584C9.42007 10.8733 9.42004 12.4337 10.1584 12.4338H13.5884C14.3268 12.4337 14.3268 10.8733 13.5884 10.8732H12.6853L12.6574 7.1343H14.6174V7.96517C14.6174 8.58191 16 8.60641 16 7.98968V6.36066C16 6.04088 15.66 5.57379 15.03 5.57376H8.7955Z"/>
<path d="M0.778442 0C0.155688 0 0 0.66007 0 0.990106V2.57251C0 3.85876 1.715 3.85876 1.715 2.57251C1.715 1.28625 1.715 1.715 1.715 1.715H4.21453V10.5513H2.62724C1.89745 10.5513 1.84272 12.4338 2.57251 12.4338H7.30397C8.03376 12.4338 8.08849 10.5513 7.35871 10.5513H5.77141V1.715H8.57502V2.57251C8.57502 3.85876 10.29 3.70423 10.29 2.57251V0.857502C10.29 0.527467 9.83026 0 9.2075 0H0.778442Z"/>
</svg>
