<svg xmlns="http://www.w3.org/2000/svg" viewBox="0 0 700 500">
<path d="M 15.445 57.815 C 15.445 40.115 29.745 25.815 47.445 25.815 L 95.445 25.815 L 143.445 25.815 C 161.145 25.815 175.445 40.115 175.445 57.815 C 175.445 75.515 161.145 89.815 143.445 89.815 L 127.445 89.815 L 127.445 201.816 L 351.445 201.816 L 351.445 89.815 L 335.445 89.815 C 317.745 89.815 303.445 75.515 303.445 57.815 C 303.445 40.115 317.745 25.815 335.445 25.815 L 383.445 25.815 L 431.445 25.815 C 449.145 25.815 463.445 40.115 463.445 57.815 C 463.445 75.515 449.145 89.815 431.445 89.815 L 415.445 89.815 L 415.445 233.816 L 415.445 409.816 L 431.445 409.816 C 449.145 409.816 463.445 424.116 463.445 441.816 C 463.445 459.516 449.145 473.816 431.445 473.816 L 383.445 473.816 L 335.445 473.816 C 317.745 473.816 303.445 459.516 303.445 441.816 C 303.445 424.116 317.745 409.816 335.445 409.816 L 351.445 409.816 L 351.445 265.816 L 127.445 265.816 L 127.445 409.816 L 143.445 409.816 C 161.145 409.816 175.445 424.116 175.445 441.816 C 175.445 459.516 161.145 473.816 143.445 473.816 L 95.445 473.816 L 47.445 473.816 C 29.745 473.816 15.445 459.516 15.445 441.816 C 15.445 424.116 29.745 409.816 47.445 409.816 L 63.445 409.816 L 63.445 233.816 L 63.445 89.815 L 47.445 89.815 C 29.745 89.815 15.445 75.515 15.445 57.815 Z"/>
<path d="M 486.457 155.75 C 488.44 144.281 497.788 135.903 508.766 135.903 L 644.744 135.903 C 657.279 135.903 667.407 146.695 667.407 160.051 C 667.407 173.406 657.279 184.196 644.744 184.196 L 527.675 184.196 L 513.228 268.704 L 593.752 268.704 C 646.939 268.704 690.07 314.655 690.07 371.321 C 690.07 427.986 646.939 473.938 593.752 473.938 L 534.616 473.938 C 506.712 473.938 481.216 457.112 468.751 430.552 L 465.848 424.365 C 460.253 412.443 464.785 397.956 475.975 391.995 C 487.165 386.034 500.763 390.863 506.358 402.785 L 509.262 408.972 C 514.077 419.234 523.851 425.648 534.616 425.648 L 593.752 425.648 C 621.939 425.648 644.744 401.351 644.744 371.321 C 644.744 341.29 621.939 316.994 593.752 316.994 L 486.103 316.994 C 479.375 316.994 473.001 313.826 468.681 308.317 C 464.36 302.809 462.59 295.566 463.794 288.548 L 486.457 155.75 Z"/>
</svg>
