<svg xmlns="http://www.w3.org/2000/svg" viewBox="0 0 16 17">
<path d="M5 0L4.57143 3H1V5H4.28571L3.71429 9H0V11H3.42857L3 14L4.9799 14.2828L5.44888 11H7V9H5.73459L6.30602 5H11.2857L11 7H13.0203L13.306 5H16V3H13.5917L13.9799 0.282843L12 0L11.5714 3H6.59173L6.9799 0.282843L5 0ZM8 13.5V9C8 8.44772 8.44771 8 9 8H15C15.5523 8 16 8.44771 16 9V13.5C16 14.0523 15.5523 14.5 15 14.5H12.1194C11.5042 15.2014 10.396 16.3544 10.0417 16C9.97944 15.9223 9.99982 15.0667 10.0206 14.5H9C8.44771 14.5 8 14.0523 8 13.5Z"/>
</svg>
