<svg xmlns="http://www.w3.org/2000/svg" viewBox="0 0 512 512">
<path d="M256.483 296.229C247.794 296.229 240.071 299.122 234.278 304.908L79.8128 459.202C67.2624 470.774 67.2624 491.026 79.8128 502.598C91.3977 515.134 111.671 515.134 123.256 502.598L256.483 370.483L388.744 502.598C400.329 515.134 420.602 515.134 432.187 502.598C444.738 491.026 444.738 470.774 432.187 459.202L277.722 304.908C271.929 299.122 264.206 296.229 256.483 296.229Z"/>
<path d="M256.483 215.771C247.794 215.771 240.071 212.878 234.278 207.092L79.8128 52.7977C67.2624 41.2256 67.2624 20.9744 79.8128 9.40233C91.3977 -3.13411 111.671 -3.13411 123.256 9.40233L256.483 141.517L388.744 9.40233C400.329 -3.13411 420.602 -3.13411 432.187 9.40233C444.738 20.9744 444.738 41.2256 432.187 52.7977L277.722 207.092C271.929 212.878 264.206 215.771 256.483 215.771Z"/>
</svg>
