<svg xmlns="http://www.w3.org/2000/svg" viewBox="0 0 513 513">
<path fill-rule="evenodd" clip-rule="evenodd" d="M64.125 0C28.0547 0 0 29.0566 0 64.125V399.75C0 435.82 28.0547 463.875 64.125 463.875H448.875C483.943 463.875 513 435.82 513 399.75V64.125C513 29.0566 483.943 0 448.875 0H64.125ZM219.375 407.75H56.125V56.1875H219.375V407.75ZM272.5 56.1875H455.875V407.75H272.5V56.1875ZM96 96C91.5817 96 88 99.5817 88 104V128C88 132.418 91.5817 136 96 136H184C188.418 136 192 132.418 192 128V104C192 99.5817 188.418 96 184 96H96ZM88 184C88 179.582 91.5817 176 96 176H184C188.418 176 192 179.582 192 184V208C192 212.418 188.418 216 184 216H96C91.5817 216 88 212.418 88 208V184ZM96 256C91.5817 256 88 259.582 88 264V288C88 292.418 91.5817 296 96 296H184C188.418 296 192 292.418 192 288V264C192 259.582 188.418 256 184 256H96Z"/>
</svg>
