<svg xmlns="http://www.w3.org/2000/svg" viewBox="0 0 448 512">
<path d="M320 64c17.46 0 31.61-13.91 31.99-31.28C352.39 14.73 337.24 0 319.24 0H128.76c-18 0-33.15 14.73-32.75 32.72.38 17.35 14.51 31.25 31.95 31.28.02 0 .04.02.04.04v151.47L7.5 426.3C2.04 436-.57 446.94.1 458.15 1.91 488.56 27.72 512 58.19 512H390.7c31.6 0 57.3-25.6 57.3-57.3 0-10-2.6-19.8-7.5-28.4l-51.88-85.77A42.57 42.57 0 0 0 352.21 320H142.07s-.05-.03-.04-.06l41.57-72.64c5.5-9.7 8.4-20.6 8.4-31.8V64.04s.02-.04.04-.04H256"/>
<path d="m433.8 70.76-2.01 2.74 1.98-2.73c-13.68-9.91-32.95-6.9-42.98 6.72l-77.76 106.87-36.49-36.44c-11.96-11.9-31.43-11.9-43.41.02-11.87 11.95-11.87 31.4.02 43.37l61.86 61.81c5.83 5.72 13.64 8.89 21.68 8.89.79 0 1.58-.03 2.38-.09 9.04-.59 17.27-5.14 22.55-12.46l98.87-135.85c9.96-13.61 6.96-32.83-6.69-42.84Z"/>
</svg>
