<svg xmlns="http://www.w3.org/2000/svg" viewBox="0 0 620 512">
<path d="M416 0C462.482 0 501.272 33.0746 510.109 76.9623C511.663 84.68 503.194 89.685 496.126 86.2177C471.04 73.9114 442.827 67 413 67C308.618 67 224 151.618 224 256C224 317.524 253.398 372.179 298.912 406.691C302.687 409.553 300.738 416 296 416C290.8 416 285.8 417.7 281.6 420.8L166.4 507.2C162.2 510.3 157.2 512 152 512C138.7 512 128 501.3 128 488V426C128 420.477 123.523 416 118 416H96C43 416 0 373 0 320V96C0 43 43 0 96 0H416Z"/>
<path d="M415.851 121C494.341 121 558.7 181.974 558.7 258.138C558.7 285.32 550.437 310.623 536.309 331.891L610.926 403.355C623.024 414.934 623.024 433.916 610.926 445.494C599.075 456.835 580.015 456.835 568.165 445.494L568.162 445.491L493.049 373.551C470.771 387.283 444.268 395.275 415.851 395.275C337.36 395.275 273 334.301 273 258.138C273 181.974 337.36 121 415.851 121ZM415.851 180.119C370.178 180.119 333.877 215.477 333.877 258.138C333.877 300.799 370.178 336.156 415.851 336.156C461.523 336.156 497.823 300.799 497.823 258.138C497.823 215.477 461.523 180.119 415.851 180.119Z"/>
</svg>
