<svg xmlns="http://www.w3.org/2000/svg" viewBox="0 0 700 500">
<path d="M 15.445 57.815 C 15.445 40.115 29.745 25.815 47.445 25.815 L 95.445 25.815 L 143.445 25.815 C 161.145 25.815 175.445 40.115 175.445 57.815 C 175.445 75.515 161.145 89.815 143.445 89.815 L 127.445 89.815 L 127.445 201.816 L 351.445 201.816 L 351.445 89.815 L 335.445 89.815 C 317.745 89.815 303.445 75.515 303.445 57.815 C 303.445 40.115 317.745 25.815 335.445 25.815 L 383.445 25.815 L 431.445 25.815 C 449.145 25.815 463.445 40.115 463.445 57.815 C 463.445 75.515 449.145 89.815 431.445 89.815 L 415.445 89.815 L 415.445 233.816 L 415.445 409.816 L 431.445 409.816 C 449.145 409.816 463.445 424.116 463.445 441.816 C 463.445 459.516 449.145 473.816 431.445 473.816 L 383.445 473.816 L 335.445 473.816 C 317.745 473.816 303.445 459.516 303.445 441.816 C 303.445 424.116 317.745 409.816 335.445 409.816 L 351.445 409.816 L 351.445 265.816 L 127.445 265.816 L 127.445 409.816 L 143.445 409.816 C 161.145 409.816 175.445 424.116 175.445 441.816 C 175.445 459.516 161.145 473.816 143.445 473.816 L 95.445 473.816 L 47.445 473.816 C 29.745 473.816 15.445 459.516 15.445 441.816 C 15.445 424.116 29.745 409.816 47.445 409.816 L 63.445 409.816 L 63.445 233.816 L 63.445 89.815 L 47.445 89.815 C 29.745 89.815 15.445 75.515 15.445 57.815 Z"/>
<path d="M 473.255 156.521 C 473.255 143.016 482.923 132.105 494.892 132.105 L 657.172 132.105 C 666.097 132.105 674.076 138.286 677.322 147.67 C 680.568 157.055 678.336 167.737 671.777 174.529 L 582.996 266.398 L 597.669 266.398 C 648.45 266.398 689.628 312.865 689.628 370.167 C 689.628 427.47 648.45 473.937 597.669 473.937 L 544.522 473.937 C 515.853 473.937 489.617 455.624 476.839 426.706 L 475.554 423.807 C 470.212 411.752 474.54 397.102 485.222 391.074 C 495.906 385.046 508.889 389.928 514.23 401.985 L 515.515 404.885 C 520.993 417.321 532.284 425.104 544.522 425.104 L 597.669 425.104 C 624.581 425.104 646.353 400.536 646.353 370.167 C 646.353 339.8 624.581 315.23 597.669 315.23 L 527.348 315.23 C 518.423 315.23 510.444 309.05 507.198 299.666 C 503.952 290.281 506.184 279.599 512.743 272.807 L 601.524 180.937 L 494.892 180.937 C 482.923 180.937 473.255 170.026 473.255 156.521 Z"/>
</svg>
