<svg xmlns="http://www.w3.org/2000/svg" viewBox="0 0 700 500">
<path d="M 15.445 57.815 C 15.445 40.115 29.745 25.815 47.445 25.815 L 95.445 25.815 L 143.445 25.815 C 161.145 25.815 175.445 40.115 175.445 57.815 C 175.445 75.515 161.145 89.815 143.445 89.815 L 127.445 89.815 L 127.445 201.816 L 351.445 201.816 L 351.445 89.815 L 335.445 89.815 C 317.745 89.815 303.445 75.515 303.445 57.815 C 303.445 40.115 317.745 25.815 335.445 25.815 L 383.445 25.815 L 431.445 25.815 C 449.145 25.815 463.445 40.115 463.445 57.815 C 463.445 75.515 449.145 89.815 431.445 89.815 L 415.445 89.815 L 415.445 233.816 L 415.445 409.816 L 431.445 409.816 C 449.145 409.816 463.445 424.116 463.445 441.816 C 463.445 459.516 449.145 473.816 431.445 473.816 L 383.445 473.816 L 335.445 473.816 C 317.745 473.816 303.445 459.516 303.445 441.816 C 303.445 424.116 317.745 409.816 335.445 409.816 L 351.445 409.816 L 351.445 265.816 L 127.445 265.816 L 127.445 409.816 L 143.445 409.816 C 161.145 409.816 175.445 424.116 175.445 441.816 C 175.445 459.516 161.145 473.816 143.445 473.816 L 95.445 473.816 L 47.445 473.816 C 29.745 473.816 15.445 459.516 15.445 441.816 C 15.445 424.116 29.745 409.816 47.445 409.816 L 63.445 409.816 L 63.445 233.816 L 63.445 89.815 L 47.445 89.815 C 29.745 89.815 15.445 75.515 15.445 57.815 Z"/>
<path d="M 575.204 170.97 C 579.64 158.991 575.619 144.692 566.157 139.076 C 556.694 133.461 545.399 138.551 540.963 150.531 L 465.204 354.242 C 462.425 361.654 462.898 370.34 466.328 377.302 C 469.758 384.264 475.85 388.382 482.355 388.382 L 614.829 388.382 L 614.829 448.275 C 614.829 461.527 623.286 472.233 633.754 472.233 C 644.222 472.233 652.678 461.527 652.678 448.275 L 652.678 388.382 L 671.603 388.382 C 682.071 388.382 690.528 377.676 690.528 364.424 C 690.528 351.172 682.071 340.468 671.603 340.468 L 652.678 340.468 L 652.678 232.659 C 652.678 219.407 644.222 208.704 633.754 208.704 C 623.286 208.704 614.829 219.407 614.829 232.659 L 614.829 340.468 L 512.161 340.468 L 575.204 170.97 Z"/>
</svg>
