<svg xmlns="http://www.w3.org/2000/svg" viewBox="0 0 700 500">
<path d="M 15.445 57.815 C 15.445 40.115 29.745 25.815 47.445 25.815 L 95.445 25.815 L 143.445 25.815 C 161.145 25.815 175.445 40.115 175.445 57.815 C 175.445 75.515 161.145 89.815 143.445 89.815 L 127.445 89.815 L 127.445 201.816 L 351.445 201.816 L 351.445 89.815 L 335.445 89.815 C 317.745 89.815 303.445 75.515 303.445 57.815 C 303.445 40.115 317.745 25.815 335.445 25.815 L 383.445 25.815 L 431.445 25.815 C 449.145 25.815 463.445 40.115 463.445 57.815 C 463.445 75.515 449.145 89.815 431.445 89.815 L 415.445 89.815 L 415.445 233.816 L 415.445 409.816 L 431.445 409.816 C 449.145 409.816 463.445 424.116 463.445 441.816 C 463.445 459.516 449.145 473.816 431.445 473.816 L 383.445 473.816 L 335.445 473.816 C 317.745 473.816 303.445 459.516 303.445 441.816 C 303.445 424.116 317.745 409.816 335.445 409.816 L 351.445 409.816 L 351.445 265.816 L 127.445 265.816 L 127.445 409.816 L 143.445 409.816 C 161.145 409.816 175.445 424.116 175.445 441.816 C 175.445 459.516 161.145 473.816 143.445 473.816 L 95.445 473.816 L 47.445 473.816 C 29.745 473.816 15.445 459.516 15.445 441.816 C 15.445 424.116 29.745 409.816 47.445 409.816 L 63.445 409.816 L 63.445 233.816 L 63.445 89.815 L 47.445 89.815 C 29.745 89.815 15.445 75.515 15.445 57.815 Z"/>
<path d="M 571.552 176.628 C 557.109 176.628 543.202 183.2 532.991 195.029 L 512.232 218.84 C 503.834 228.505 490.197 228.505 481.8 218.84 C 473.402 209.177 473.402 193.482 481.8 183.819 L 502.558 160.006 C 520.899 138.977 545.688 127.149 571.552 127.149 C 625.363 127.149 669.03 177.402 669.03 239.326 C 669.03 269.092 658.752 297.62 640.479 318.649 L 548.98 424.026 L 669.03 424.026 C 680.921 424.026 690.528 435.08 690.528 448.765 C 690.528 462.449 680.921 473.505 669.03 473.505 L 497.049 473.505 C 488.383 473.505 480.523 467.475 477.164 458.198 C 473.805 448.919 475.686 438.328 481.8 431.215 L 610.047 283.704 C 620.258 271.952 626.035 255.949 626.035 239.326 C 626.035 204.693 601.649 176.628 571.552 176.628 Z"/>
</svg>
