<svg xmlns="http://www.w3.org/2000/svg" viewBox="0 0 448 512">
<path d="M442.7 396.2L36.5 70.7c-6.9-5.5-17-4.4-22.5 2.5L4 85.6c-5.5 6.9-4.4 17 2.5 22.5l406.2 325.5c6.9 5.5 17 4.4 22.5-2.5l10-12.5c5.5-6.9 3.7-17.7-3.2-23.2l.7.8zM67.5 368c16.7-22 34.5-55.8 41.4-110.6l-45.5-35.6C60.2 312.6 27 342.5 8.6 362.3 2.6 368.7 0 376.4 0 384c.1 16.4 13 32 32.1 32h279.7l-61.4-48H67.5zM224 96c61.9 0 112 50.1 112 112 0 .2-.1.4-.1.6 0 16.8 1.2 31.8 2.8 45.7l59.5 46.5c-8.3-22.1-14.3-51.5-14.3-92.9 0-77.7-54.5-139.9-127.9-155.2V32c0-17.7-14.3-32-32-32s-32 14.3-32 32v20.8c-26 5.4-49.4 16.9-69.1 32.7l38.2 29.8C179 103.2 200.6 96 224 96zm0 416c35.3 0 64-28.6 64-64H160c0 35.4 28.7 64 64 64z"/>
</svg>
