<svg xmlns="http://www.w3.org/2000/svg" viewBox="0 0 52 52">
<path d="M26 46.5156C37.3305 46.5156 46.5156 37.3305 46.5156 26C46.5156 14.6695 37.3305 5.48438 26 5.48438C14.6695 5.48438 5.48438 14.6695 5.48438 26C5.48438 37.3305 14.6695 46.5156 26 46.5156ZM26 52C40.3594 52 52 40.3594 52 26C52 11.6406 40.3594 0 26 0C11.6406 0 0 11.6406 0 26C0 40.3594 11.6406 52 26 52Z"/>
<path d="M33.3125 22.75H18.6875C16.8926 22.75 15.4375 24.2051 15.4375 26C15.4375 27.7949 16.8926 29.25 18.6875 29.25H33.3125C35.1074 29.25 36.5625 27.7949 36.5625 26C36.5625 24.2051 35.1074 22.75 33.3125 22.75Z"/>
</svg>
