<svg xmlns="http://www.w3.org/2000/svg" viewBox="0 0 574 520">
<clipPath id="a"><path d="m0 0h574v520h-574z"/></clipPath>
<g clip-path="url(#a)"><path d="m316.376 352c-4.141 13.095-6.376 27.036-6.376 41.5 0 17.3 3.195 33.853 9.027 49.103-.571 1.347-1.145 2.68-1.727 3.997-10.5 23.6-22.2 40.7-33.5 51.5-11.2 10.7-20.5 13.9-27.8 13.9s-16.6-3.2-27.8-13.8c-11.3-10.8-23-27.9-33.5-51.5v-.1c-11.6-26-20.9-58.2-27-94.6zm-181.076 0c10 63.9 29.8 117.4 55.3 151.6-78.4-20.7-142.0005-77.5-172.0004-151.6zm207.726 130.895c3.531 4.122 7.301 8.034 11.29 11.712-8.429 2.498-19.057 5.355-32.816 8.993 8.972-12.033 15.889-16.799 21.526-20.705zm-211.826-290.895c-2.1 20.6-3.2 42-3.2 64s1.1 43.4 3.2 64h-123.10039c-5.29998-20.5-8.09961-41.9-8.09961-64s2.79963-43.5 8.09961-64zm217.5 0c2.2 20.4 3.3 41.8 3.3 64 0 13.593-.452 26.886-1.283 39.833-7.348 7.282-13.878 15.388-19.442 24.167h-167.875c-2.2-20.4-3.3-41.8-3.3-64s1.2-43.6 3.3-64zm98.586 127.438c1.283 0 2.52.197 3.681.562h-7.362c1.162-.365 2.398-.562 3.681-.562zm56.614-127.438c5.3 20.5 8.1 41.9 8.1 64 0 5.302-.163 10.563-.481 15.781-19.121-10.077-40.904-15.781-64.019-15.781-22.983 0-44.648 5.64-63.688 15.609.123-5.167.188-10.371.188-15.609 0-22-1.1-43.4-3.2-64zm-313.3-183.59961c-25.5 34.20001-45.3 87.69991-55.3 151.59961h-116.7004c29.9999-74.0999 93.6004-130.8995 172.0004-151.59961zm65.4-8.40039c7.3 0 16.6 3.19995 27.8 13.7998 11.3 10.8 23 27.9001 33.5 51.5 11.6 26 20.9 58.2002 27 94.7002h-176.6c6.1-36.4 15.5-68.6002 27-94.7002 10.5-23.5999 22.2-40.7 33.5-51.5 11.2-10.59984 20.5-13.7998 27.8-13.7998zm65.4 8.40039c78.3 20.70011 142 77.49981 171.9 151.59961h-116.6c-10-63.8997-29.8-117.3996-55.3-151.59961z"/><path d="m447.5 267c69.864 0 126.5 56.636 126.5 126.5s-56.636 126.5-126.5 126.5-126.5-56.636-126.5-126.5 56.636-126.5 126.5-126.5zm-.197 58.362c-6.224 0-11.252 5.029-11.252 11.253v50.635h-50.636c-6.224 0-11.252 5.029-11.252 11.253s5.028 11.252 11.252 11.252h50.636v50.636c0 6.223 5.028 11.252 11.252 11.252s11.251-5.029 11.252-11.252v-50.636h50.635c6.224 0 11.252-5.028 11.252-11.252s-5.028-11.253-11.252-11.253h-50.635v-50.635c0-6.224-5.028-11.253-11.252-11.253z"/></g>
</svg>
