<svg xmlns="http://www.w3.org/2000/svg" viewBox="0 0 700 500">
<path d="M 15.445 57.815 C 15.445 40.115 29.745 25.815 47.445 25.815 L 95.445 25.815 L 143.445 25.815 C 161.145 25.815 175.445 40.115 175.445 57.815 C 175.445 75.515 161.145 89.815 143.445 89.815 L 127.445 89.815 L 127.445 201.816 L 351.445 201.816 L 351.445 89.815 L 335.445 89.815 C 317.745 89.815 303.445 75.515 303.445 57.815 C 303.445 40.115 317.745 25.815 335.445 25.815 L 383.445 25.815 L 431.445 25.815 C 449.145 25.815 463.445 40.115 463.445 57.815 C 463.445 75.515 449.145 89.815 431.445 89.815 L 415.445 89.815 L 415.445 233.816 L 415.445 409.816 L 431.445 409.816 C 449.145 409.816 463.445 424.116 463.445 441.816 C 463.445 459.516 449.145 473.816 431.445 473.816 L 383.445 473.816 L 335.445 473.816 C 317.745 473.816 303.445 459.516 303.445 441.816 C 303.445 424.116 317.745 409.816 335.445 409.816 L 351.445 409.816 L 351.445 265.816 L 127.445 265.816 L 127.445 409.816 L 143.445 409.816 C 161.145 409.816 175.445 424.116 175.445 441.816 C 175.445 459.516 161.145 473.816 143.445 473.816 L 95.445 473.816 L 47.445 473.816 C 29.745 473.816 15.445 459.516 15.445 441.816 C 15.445 424.116 29.745 409.816 47.445 409.816 L 63.445 409.816 L 63.445 233.816 L 63.445 89.815 L 47.445 89.815 C 29.745 89.815 15.445 75.515 15.445 57.815 Z"/>
<path d="M 608.204 130.88 C 608.204 121.152 602.845 112.249 594.272 107.633 C 585.698 103.016 575.311 103.511 567.232 108.952 L 488.091 161.712 C 475.891 169.791 472.676 186.113 480.754 198.314 C 488.833 210.515 505.239 213.73 517.357 205.651 L 555.443 180.178 L 555.443 421.062 L 502.683 421.062 C 488.091 421.062 476.303 432.85 476.303 447.442 C 476.303 462.033 488.091 473.822 502.683 473.822 L 581.823 473.822 L 660.964 473.822 C 675.555 473.822 687.344 462.033 687.344 447.442 C 687.344 432.85 675.555 421.062 660.964 421.062 L 608.204 421.062 L 608.204 130.88 Z"/>
</svg>
