<svg xmlns="http://www.w3.org/2000/svg" viewBox="0 0 512 512">
<path d="M256.483 512C247.794 512 240.071 509.107 234.278 503.321L79.8128 349.026C67.2624 337.454 67.2624 317.203 79.8128 305.631C91.3977 293.094 111.671 293.094 123.256 305.631L256.483 437.746L388.744 305.631C400.329 293.094 420.602 293.094 432.187 305.631C444.738 317.203 444.738 337.454 432.187 349.026L277.722 503.321C271.929 509.107 264.206 512 256.483 512Z"/>
<path d="M256.483 0C247.794 0 240.071 2.89303 234.278 8.67907L79.8128 162.974C67.2624 174.546 67.2624 194.797 79.8128 206.369C91.3977 218.906 111.671 218.906 123.256 206.369L256.483 74.2543L388.744 206.369C400.329 218.906 420.602 218.906 432.187 206.369C444.738 194.797 444.738 174.546 432.187 162.974L277.722 8.67907C271.929 2.89303 264.206 0 256.483 0Z"/>
</svg>
