<svg xmlns="http://www.w3.org/2000/svg" viewBox="0 0 448 512">
<path d="M224 512c35.3 0 64-28.7 64-64H160c0 35.3 28.7 64 64 64zM439.4 362.3c-19.3-20.8-55.5-52-55.5-154.3 0-77.7-54.5-139.9-127.9-155.2V32c0-17.7-14.3-32-32-32s-32 14.3-32 32v20.8C118.6 68.1 64.1 130.3 64.1 208c0 102.3-36.2 133.5-55.5 154.3-6 6.4-8.6 14.1-8.6 21.7.1 16.4 13 32 32.1 32h383.8c19.1 0 32-15.6 32.1-32 .1-7.6-2.6-15.3-8.6-21.7zm-145.2-28c0 8.6-7 15.5-15.5 15.5h-97c-8.6 0-15.5-7-15.5-15.5v-15.8c0-8.6 7-15.5 15.5-15.5h27.1V192.5l-5.1 3.1c-6 6.1-15.9 6.2-22 .1l-11.2-11.1c-6.1-6-6.2-15.9-.1-22l31.6-31.9c3.2-3.2 7.4-4.7 11.5-4.6h26.6c8.6 0 11.5 7 11.5 15.5v161.3h27.1c8.6 0 15.5 7 15.5 15.5v15.9z"/>
</svg>
