<?xml version="1.0" encoding="UTF-8" standalone="no"?>
<svg
   viewBox="0 0 200 200"
   width="200"
   height="200"
   role="img"
   aria-label="dsc — filled bubble with prompt prefix"
   version="1.1"
   id="svg2"
   sodipodi:docname="dsc-logo-black-on-white.svg"
   inkscape:version="1.4.4 (dcaf3e7d9e, 2026-05-05)"
   xmlns:inkscape="http://www.inkscape.org/namespaces/inkscape"
   xmlns:sodipodi="http://sodipodi.sourceforge.net/DTD/sodipodi-0.dtd"
   xmlns="http://www.w3.org/2000/svg"
   xmlns:svg="http://www.w3.org/2000/svg">
  <defs
     id="defs2" />
  <sodipodi:namedview
     id="namedview2"
     pagecolor="#575757"
     bordercolor="#000000"
     borderopacity="0.25"
     inkscape:showpageshadow="2"
     inkscape:pageopacity="0.0"
     inkscape:pagecheckerboard="true"
     inkscape:deskcolor="#d1d1d1"
     inkscape:zoom="5.9"
     inkscape:cx="99.830508"
     inkscape:cy="100"
     inkscape:window-width="2000"
     inkscape:window-height="1181"
     inkscape:window-x="0"
     inkscape:window-y="0"
     inkscape:window-maximized="1"
     inkscape:current-layer="svg2" />
  <path
     d="M40 28 H160 a24 24 0 0 1 24 24 V124 a24 24 0 0 1 -24 24 H78 L46 178 V148 H40 a24 24 0 0 1 -24 -24 V52 a24 24 0 0 1 24 -24 Z"
     fill="oklch(0.66 0.18 35)"
     id="path1"
     style="fill:#ffffff;fill-opacity:1" />
  <g
     id="g1">
    <text
       style="font-weight:bold;font-size:59.2178px;font-family:'Century Gothic';-inkscape-font-specification:'Century Gothic, Bold';letter-spacing:-2.46741;fill:#000000;fill-opacity:1;stroke-width:1.2337"
       transform="scale(0.99483151,1.0051953)"
       x="26.830643"
       y="110.28639"
       id="text6">&gt;</text>
    <path
       d="m 97.463415,66.68266 h 7.864865 v 43.60373 h -7.864865 v -3.32522 q -2.313195,2.19754 -4.655306,3.18065 -2.313195,0.95419 -5.031199,0.95419 -6.101053,0 -10.553954,-4.71313 -4.452901,-4.74206 -4.452901,-11.768386 0,-7.286565 4.308326,-11.941871 4.308327,-4.655305 10.467209,-4.655305 2.833664,0 5.320349,1.069852 2.486685,1.069853 4.597476,3.209559 z m -8.298588,18.621223 q -3.672198,0 -6.101053,2.602345 -2.428855,2.573429 -2.428855,6.621521 0,4.077007 2.45777,6.708271 2.486685,2.63126 6.101053,2.63126 3.730027,0 6.187797,-2.57343 2.45777,-2.602349 2.45777,-6.795016 0,-4.105922 -2.45777,-6.650436 -2.45777,-2.544515 -6.216712,-2.544515 z"
       id="text5"
       style="font-weight:bold;font-size:59.2178px;font-family:'Century Gothic';-inkscape-font-specification:'Century Gothic, Bold';letter-spacing:-2.46741;fill:#000000;stroke-width:1.2337"
       transform="scale(0.99483151,1.0051953)"
       aria-label="d" />
    <path
       d="m 133.8737,83.222007 -4.88662,4.886625 q -2.97824,-2.949324 -5.4071,-2.949324 -1.33008,0 -2.08187,0.578299 -0.75179,0.549384 -0.75179,1.387917 0,0.636129 0.46264,1.185513 0.49155,0.520469 2.37102,1.445747 l 2.8915,1.445747 q 4.56856,2.255365 6.27454,4.597476 1.70598,2.34211 1.70598,5.493843 0,4.19266 -3.0939,6.99741 -3.06498,2.80475 -8.24075,2.80475 -6.88176,0 -10.98768,-5.37818 l 4.85771,-5.29143 q 1.38792,1.61923 3.23847,2.63126 1.87947,0.9831 3.32522,0.9831 1.56141,0 2.5156,-0.75178 0.95419,-0.75179 0.95419,-1.7349 0,-1.821641 -3.44088,-3.556538 l -2.66017,-1.330087 q -7.63354,-3.845687 -7.63354,-9.628676 0,-3.730027 2.86257,-6.361287 2.8915,-2.660174 7.37331,-2.660174 3.06499,0 5.75408,1.359002 2.718,1.330087 4.59747,3.845687 z"
       id="text4"
       style="font-weight:bold;font-size:59.2178px;font-family:'Century Gothic';-inkscape-font-specification:'Century Gothic, Bold';letter-spacing:-2.46741;fill:#000000;stroke-width:1.2337"
       transform="scale(0.99483151,1.0051953)"
       aria-label="s" />
    <path
       d="m 170.88323,85.188223 -6.56369,3.614368 q -1.85056,-1.937301 -3.6722,-2.68909 -1.79272,-0.751788 -4.22158,-0.751788 -4.42399,0 -7.17091,2.660174 -2.718,2.63126 -2.718,6.766097 0,4.019176 2.63126,6.563696 2.63126,2.54451 6.91067,2.54451 5.29144,0 8.24076,-3.61437 l 6.21671,4.2505 q -5.06011,6.56369 -14.28398,6.56369 -8.29859,0 -13.01172,-4.91554 -4.68422,-4.91554 -4.68422,-11.508146 0,-4.568561 2.28428,-8.414248 2.28428,-3.845687 6.36128,-6.043223 4.10593,-2.197535 9.16604,-2.197535 4.68422,0 8.41425,1.879471 3.73003,1.850556 6.10105,5.291434 z"
       id="text3"
       style="font-weight:bold;font-size:59.2178px;font-family:'Century Gothic';-inkscape-font-specification:'Century Gothic, Bold';letter-spacing:-2.46741;fill:#000000;stroke-width:1.2337"
       transform="scale(0.99483151,1.0051953)"
       aria-label="c" />
  </g>
</svg>
